<svg width="60" height="55" viewBox="0 0 60 55" fill="none" xmlns="http://www.w3.org/2000/svg">
<path fill-rule="evenodd" clip-rule="evenodd" d="M9.95833 38.849H44C50.7568 38.849 54.1352 38.849 56.2343 37.1435C58.3333 35.438 58.3333 32.693 58.3333 27.2031V12.6458C58.3333 7.15593 58.3333 4.41099 56.2343 2.70549C54.1352 1 50.7568 1 44 1H15.3333C8.57654 1 5.19814 1 3.09907 2.70549C1 4.41099 1 7.15593 1 12.6458V46.1276C1 42.1077 5.01078 38.849 9.95833 38.849ZM18.9167 13.5573C17.8121 13.5573 16.9167 14.4527 16.9167 15.5573C16.9167 16.6619 17.8121 17.5573 18.9167 17.5573H40.4167C41.5212 17.5573 42.4167 16.6619 42.4167 15.5573C42.4167 14.4527 41.5212 13.5573 40.4167 13.5573L18.9167 13.5573Z" fill="#00FF6F"/>
<path d="M1 46.1276V12.6458C1 7.15593 1 4.41099 3.09907 2.70549C5.19814 1 8.57654 1 15.3333 1H44C50.7568 1 54.1352 1 56.2343 2.70549C58.3333 4.41099 58.3333 7.15593 58.3333 12.6458V27.2031C58.3333 32.693 58.3333 35.438 56.2343 37.1435C54.1352 38.849 50.7568 38.849 44 38.849H9.95833C5.01078 38.849 1 42.1077 1 46.1276ZM1 46.1276C1 50.1475 5.01078 53.4062 9.95833 53.4062H26.0833M58.3333 53.4062H22.5M16.9167 15.5573C16.9167 14.4527 17.8121 13.5573 18.9167 13.5573L40.4167 13.5573C41.5212 13.5573 42.4167 14.4527 42.4167 15.5573C42.4167 16.6619 41.5212 17.5573 40.4167 17.5573H18.9167C17.8121 17.5573 16.9167 16.6619 16.9167 15.5573Z" stroke="#00FF6F" stroke-width="2" stroke-linecap="round"/>
</svg>
