<svg width="67" height="63" viewBox="0 0 67 63" fill="none" xmlns="http://www.w3.org/2000/svg">
<path fill-rule="evenodd" clip-rule="evenodd" d="M11.0104 44.6667H49.026C56.5715 44.6667 60.3443 44.6667 62.6884 42.7385C65.0325 40.8102 65.0325 37.7068 65.0325 31.5V15.0417C65.0325 8.83484 65.0325 5.73143 62.6884 3.80321C60.3443 1.875 56.5715 1.875 49.026 1.875H17.0129C9.46733 1.875 5.69455 1.875 3.35045 3.80321C1.00635 5.73143 1.00635 8.83484 1.00635 15.0417V52.8958C1.00635 48.351 5.48533 44.6667 11.0104 44.6667ZM21.0145 16.3333C19.91 16.3333 19.0145 17.2288 19.0145 18.3333C19.0145 19.4379 19.9099 20.3333 21.0145 20.3333H45.0243C46.1289 20.3333 47.0243 19.4379 47.0243 18.3333C47.0243 17.2288 46.1289 16.3333 45.0243 16.3333H21.0145Z" fill="white"/>
<path d="M1.00635 52.8958V15.0417C1.00635 8.83484 1.00635 5.73143 3.35045 3.80321C5.69455 1.875 9.46733 1.875 17.0129 1.875H49.026C56.5715 1.875 60.3443 1.875 62.6884 3.80321C65.0325 5.73143 65.0325 8.83484 65.0325 15.0417V31.5C65.0325 37.7068 65.0325 40.8102 62.6884 42.7385C60.3443 44.6667 56.5715 44.6667 49.026 44.6667H11.0104C5.48533 44.6667 1.00635 48.351 1.00635 52.8958ZM1.00635 52.8958C1.00635 57.4407 5.48533 61.125 11.0104 61.125H29.0178M65.0325 61.125H25.0162M19.0145 18.3333C19.0145 17.2288 19.91 16.3333 21.0145 16.3333H45.0243C46.1289 16.3333 47.0243 17.2288 47.0243 18.3333C47.0243 19.4379 46.1289 20.3333 45.0243 20.3333H21.0145C19.9099 20.3333 19.0145 19.4379 19.0145 18.3333Z" stroke="white" stroke-width="2" stroke-linecap="round"/>
</svg>
