<svg width="56" height="56" viewBox="0 0 56 56" fill="none" xmlns="http://www.w3.org/2000/svg">
<path d="M1.70602 18.1391C0.63623 20.1768 0.63623 22.495 0.63623 27.1314V41.6112C0.63623 48.0501 0.63623 51.2696 2.91951 53.2699C5.20278 55.2702 8.87766 55.2702 16.2274 55.2702H17.1763V38.1967C17.1763 35.6383 19.4975 33.7819 22.0741 33.7819H33.7675C36.3441 33.7819 38.6653 35.6383 38.6653 38.1967V55.2702H39.6142C46.964 55.2702 50.6388 55.2702 52.9221 53.2699C55.2054 51.2696 55.2054 48.0501 55.2054 41.6112V27.1314C55.2054 22.495 55.2054 20.1768 54.1356 18.1391C53.0658 16.1014 51.0567 14.5927 47.0385 11.5754L43.1407 8.64845C35.8779 3.19466 32.2465 0.467773 27.9208 0.467773C23.5951 0.467773 19.9637 3.19466 12.7009 8.64844L8.8031 11.5754C4.78492 14.5927 2.77582 16.1014 1.70602 18.1391Z" fill="#FFD900"/>
<path d="M36.6653 55.2702V38.1967C36.6653 36.9832 35.4963 35.7819 33.7675 35.7819H22.0741C20.3453 35.7819 19.1763 36.9832 19.1763 38.1967V55.2702H36.6653Z" fill="#FFD900"/>
</svg>
