<svg width="107" height="104" viewBox="0 0 107 104" fill="none" xmlns="http://www.w3.org/2000/svg">
<mask id="mask0_2_60" style="mask-type:luminance" maskUnits="userSpaceOnUse" x="0" y="0" width="107" height="104">
<path d="M107 0H0V103.718H107V0Z" fill="white"/>
</mask>
<g mask="url(#mask0_2_60)">
<path d="M10.4743 45.4823C10.0397 43.9105 10.0396 42.2556 10.4741 40.6839C10.9086 39.1122 11.7622 37.6789 12.9493 36.5284L37.6848 12.5515C38.8718 11.4009 40.3504 10.5734 41.9718 10.1522C43.5933 9.7311 45.3005 9.73116 46.922 10.1524L70.0683 16.1642C70.3092 13.0905 71.4132 10.1392 73.2608 7.63009L45.3827 0.390048C43.3817 -0.12962 41.2748 -0.129609 39.2739 0.390082C37.2729 0.909776 35.4482 1.93084 33.9834 3.35067L3.45786 32.9399C1.99311 34.3599 0.93974 36.1285 0.403606 38.0681C-0.13253 40.0077 -0.132541 42.05 0.403571 43.9896L8.16004 72.049C10.6956 70.172 13.7145 69.0062 16.887 68.6793L10.4743 45.4823Z" fill="black"/>
<path d="M89.9019 34.2637L96.5288 58.2361C96.9636 59.8081 96.963 61.4628 96.5288 63.0343C96.0941 64.6063 95.2402 66.0393 94.0532 67.1899L69.3176 91.1674C68.1306 92.318 66.6523 93.1451 65.0305 93.5665C63.4093 93.9873 61.7017 93.9873 60.0805 93.5665L36.1494 87.3504C35.8122 90.4258 34.6097 93.3521 32.6731 95.8097L61.6204 103.328C63.6212 103.848 65.7282 103.848 67.729 103.328C69.7303 102.808 71.5547 101.788 73.0197 100.368L103.545 70.7784C105.01 69.3583 106.063 67.59 106.6 65.65C107.136 63.7106 107.136 61.6682 106.6 59.7288L98.5505 30.6189C96.0685 32.5826 93.0758 33.8438 89.9019 34.2637Z" fill="black"/>
<path d="M8.8552 75.9187C6.89476 77.8187 5.55967 80.2403 5.01878 82.8757C4.47789 85.5117 4.75549 88.2439 5.81647 90.7268C6.8774 93.2092 8.6741 95.3314 10.9793 96.8247C13.2845 98.3174 15.9947 99.1146 18.7671 99.1146C21.5396 99.1146 24.2498 98.3174 26.5549 96.8247C28.8602 95.3314 30.6569 93.2092 31.7178 90.7268C32.7788 88.2439 33.0564 85.5117 32.5154 82.8757C31.9746 80.2403 30.6395 77.8187 28.6791 75.9187C26.0482 73.3744 22.4835 71.9453 18.7671 71.9453C15.0507 71.9453 11.4861 73.3744 8.8552 75.9187Z" fill="#B6B8BC"/>
<path d="M77.5965 7.88258C75.6363 9.78284 74.3007 12.2039 73.7603 14.8397C73.2194 17.4755 73.4968 20.2075 74.5579 22.6904C75.6189 25.1732 77.4154 27.2954 79.7203 28.7884C82.0259 30.2815 84.7359 31.0784 87.5081 31.0784C90.2809 31.0784 92.991 30.2815 95.2965 28.7884C97.6015 27.2954 99.3979 25.1732 100.459 22.6904C101.52 20.2075 101.797 17.4755 101.257 14.8397C100.716 12.2039 99.3805 9.78284 97.4204 7.88258C94.7898 5.33814 91.2247 3.90918 87.5081 3.90918C83.7921 3.90918 80.2271 5.33814 77.5965 7.88258Z" fill="#B6B8BC"/>
<path d="M61.7289 87.8769C61.1659 87.8769 60.6058 87.8055 60.0619 87.6643L38.156 81.9743C37.4256 78.1934 35.5332 74.7146 32.7272 71.9948C29.9211 69.2749 26.3324 67.4402 22.4318 66.7324L16.5623 45.5C16.2714 44.441 16.2722 43.3264 16.5648 42.2678C16.8575 41.2092 17.4317 40.2436 18.23 39.4674L40.714 17.6724C41.5138 16.8971 42.51 16.3396 43.6026 16.0558C44.6952 15.772 45.8456 15.7721 46.9381 16.0559L68.2299 21.5861C69.0744 25.3437 71.07 28.7663 73.9554 31.4058C76.8408 34.0453 80.4813 35.7786 84.3999 36.3785L90.4365 58.2213C90.7273 59.2808 90.7267 60.3954 90.4336 61.4537C90.141 62.5126 89.567 63.4781 88.7683 64.2545L66.2842 86.0489C65.6875 86.6301 64.9771 87.0915 64.1952 87.4049C63.4134 87.7189 62.5752 87.8792 61.7289 87.8769Z" fill="#B6B8BC"/>
</g>
<path d="M27.416 59.9982C26.856 59.9982 26.408 59.8489 26.072 59.5502C25.736 59.2515 25.568 58.8409 25.568 58.3182V46.7822C25.568 44.6169 26.184 42.9182 27.416 41.6862C28.648 40.4542 30.3467 39.8382 32.512 39.8382C33.5573 39.8382 34.5373 40.0995 35.452 40.6222C36.3853 41.1262 37.188 41.8542 37.86 42.8062C38.5133 41.8355 39.2973 41.0982 40.212 40.5942C41.1453 40.0902 42.1533 39.8382 43.236 39.8382C45.4013 39.8382 47.1 40.4542 48.332 41.6862C49.564 42.9182 50.18 44.6169 50.18 46.7822V58.3182C50.18 58.8222 50.0027 59.2329 49.648 59.5502C49.312 59.8489 48.864 59.9982 48.304 59.9982C47.744 59.9982 47.296 59.8489 46.96 59.5502C46.624 59.2515 46.456 58.8409 46.456 58.3182V46.7822C46.456 45.3635 46.1947 44.3462 45.672 43.7302C45.1493 43.0955 44.2907 42.7782 43.096 42.7782C42.0133 42.7782 41.1733 43.1235 40.576 43.8142C39.9973 44.5049 39.708 45.4942 39.708 46.7822V58.3182C39.708 58.8409 39.54 59.2515 39.204 59.5502C38.868 59.8489 38.42 59.9982 37.86 59.9982C37.3 59.9982 36.852 59.8489 36.516 59.5502C36.1987 59.2515 36.04 58.8409 36.04 58.3182V46.7822C36.04 45.5315 35.7413 44.5515 35.144 43.8422C34.5467 43.1329 33.716 42.7782 32.652 42.7782C31.4573 42.7782 30.5987 43.0955 30.076 43.7302C29.5533 44.3462 29.292 45.3635 29.292 46.7822V58.3182C29.292 58.8222 29.1147 59.2329 28.76 59.5502C28.424 59.8489 27.976 59.9982 27.416 59.9982ZM55.1699 59.9982C54.6099 59.9982 54.1619 59.8489 53.8259 59.5502C53.4899 59.2515 53.3219 58.8409 53.3219 58.3182V46.7822C53.3219 44.6169 53.9379 42.9182 55.1699 41.6862C56.4019 40.4542 58.1006 39.8382 60.2659 39.8382C61.3112 39.8382 62.2912 40.0995 63.2059 40.6222C64.1392 41.1262 64.9419 41.8542 65.6139 42.8062C66.2672 41.8355 67.0512 41.0982 67.9659 40.5942C68.8992 40.0902 69.9072 39.8382 70.9899 39.8382C73.1552 39.8382 74.8539 40.4542 76.0859 41.6862C77.3179 42.9182 77.9339 44.6169 77.9339 46.7822V58.3182C77.9339 58.8222 77.7566 59.2329 77.4019 59.5502C77.0659 59.8489 76.6179 59.9982 76.0579 59.9982C75.4979 59.9982 75.0499 59.8489 74.7139 59.5502C74.3779 59.2515 74.2099 58.8409 74.2099 58.3182V46.7822C74.2099 45.3635 73.9486 44.3462 73.4259 43.7302C72.9032 43.0955 72.0446 42.7782 70.8499 42.7782C69.7672 42.7782 68.9272 43.1235 68.3299 43.8142C67.7512 44.5049 67.4619 45.4942 67.4619 46.7822V58.3182C67.4619 58.8409 67.2939 59.2515 66.9579 59.5502C66.6219 59.8489 66.1739 59.9982 65.6139 59.9982C65.0539 59.9982 64.6059 59.8489 64.2699 59.5502C63.9526 59.2515 63.7939 58.8409 63.7939 58.3182V46.7822C63.7939 45.5315 63.4952 44.5515 62.8979 43.8422C62.3006 43.1329 61.4699 42.7782 60.4059 42.7782C59.2112 42.7782 58.3526 43.0955 57.8299 43.7302C57.3072 44.3462 57.0459 45.3635 57.0459 46.7822V58.3182C57.0459 58.8222 56.8686 59.2329 56.5139 59.5502C56.1779 59.8489 55.7299 59.9982 55.1699 59.9982Z" fill="black"/>
</svg>
