<svg width="64" height="60" viewBox="0 0 64 60" fill="none" xmlns="http://www.w3.org/2000/svg">
<path fill-rule="evenodd" clip-rule="evenodd" d="M0.87868 0.87868C0 1.75736 0 3.17157 0 6V53.25C0 56.0784 0 57.4926 0.87868 58.3713C1.75736 59.25 3.17157 59.25 6 59.25H57.5234C60.3518 59.25 61.766 59.25 62.6447 58.3713C63.5234 57.4926 63.5234 56.0784 63.5234 53.25V6C63.5234 3.17157 63.5234 1.75736 62.6447 0.87868C61.766 0 60.3518 0 57.5234 0H6C3.17157 0 1.75736 0 0.87868 0.87868ZM44.4664 18.75C45.0187 18.75 45.4664 19.1977 45.4664 19.75V46.0833C45.4664 46.6356 45.0187 47.0833 44.4664 47.0833C43.9141 47.0833 43.4664 46.6356 43.4664 46.0833V19.75C43.4664 19.1977 43.9141 18.75 44.4664 18.75ZM20.057 26.3333C20.057 25.7811 19.6093 25.3333 19.057 25.3333C18.5047 25.3333 18.057 25.7811 18.057 26.3333V46.0833C18.057 46.6356 18.5047 47.0833 19.057 47.0833C19.6093 47.0833 20.057 46.6356 20.057 46.0833V26.3333ZM32.7617 32.9167C32.7617 32.3644 32.314 31.9167 31.7617 31.9167C31.2094 31.9167 30.7617 32.3644 30.7617 32.9167V46.0833C30.7617 46.6356 31.2094 47.0833 31.7617 47.0833C32.314 47.0833 32.7617 46.6356 32.7617 46.0833V32.9167Z" fill="#FF0000"/>
</svg>
