<svg width="68" height="65" viewBox="0 0 68 65" fill="none" xmlns="http://www.w3.org/2000/svg">
<path fill-rule="evenodd" clip-rule="evenodd" d="M1.54518 1.50368C0.666504 2.38236 0.666504 3.79657 0.666504 6.625V58.375C0.666504 61.2034 0.666504 62.6176 1.54518 63.4963C2.42386 64.375 3.83807 64.375 6.6665 64.375H61.3332C64.1616 64.375 65.5758 64.375 66.4545 63.4963C67.3332 62.6176 67.3332 61.2034 67.3332 58.375V6.625C67.3332 3.79657 67.3332 2.38236 66.4545 1.50368C65.5758 0.625 64.1616 0.625 61.3332 0.625H6.6665C3.83808 0.625 2.42386 0.625 1.54518 1.50368ZM47.3332 20.875C47.8855 20.875 48.3332 21.3227 48.3332 21.875V50.2083C48.3332 50.7606 47.8855 51.2083 47.3332 51.2083C46.7809 51.2083 46.3332 50.7606 46.3332 50.2083V21.875C46.3332 21.3227 46.7809 20.875 47.3332 20.875ZM21.6665 28.9583C21.6665 28.4061 21.2188 27.9583 20.6665 27.9583C20.1142 27.9583 19.6665 28.4061 19.6665 28.9583V50.2083C19.6665 50.7606 20.1142 51.2083 20.6665 51.2083C21.2188 51.2083 21.6665 50.7606 21.6665 50.2083V28.9583ZM34.9998 36.0417C34.9998 35.4894 34.5521 35.0417 33.9998 35.0417C33.4476 35.0417 32.9998 35.4894 32.9998 36.0417V50.2083C32.9998 50.7606 33.4476 51.2083 33.9998 51.2083C34.5521 51.2083 34.9998 50.7606 34.9998 50.2083V36.0417Z" fill="white"/>
</svg>
